<?xml version="1.0" standalone="no"?>
<!DOCTYPE svg PUBLIC "-//W3C//DTD SVG 20010904//EN"
 "http://www.w3.org/TR/2001/REC-SVG-20010904/DTD/svg10.dtd">
<svg version="1.0" xmlns="http://www.w3.org/2000/svg"
 width="128.000000pt" height="128.000000pt" viewBox="0 0 128.000000 128.000000"
 preserveAspectRatio="xMidYMid meet">

<g transform="translate(0.000000,128.000000) scale(0.100000,-0.100000)"
fill="#000000" stroke="none">
<path d="M552 1259 c-144 -22 -269 -87 -372 -195 -114 -120 -170 -261 -170
-429 0 -177 57 -314 184 -441 89 -89 178 -140 296 -170 83 -22 217 -22 300 0
226 57 408 237 465 461 19 76 19 224 0 300 -56 222 -242 407 -460 459 -85 21
-170 26 -243 15z m-102 -259 l0 -70 70 0 70 0 0 -35 0 -35 -70 0 -70 0 0 -70
0 -70 -40 0 -40 0 0 70 0 70 -70 0 -70 0 0 35 0 35 70 0 70 0 0 70 0 70 40 0
40 0 0 -70z m470 0 l0 -70 70 0 70 0 0 -35 0 -35 -70 0 -70 0 0 -70 0 -70 -40
0 -40 0 0 70 0 70 -70 0 -70 0 0 35 0 35 70 0 70 0 0 70 0 70 40 0 40 0 0 -70z
m-452 -553 c40 -101 72 -186 72 -190 0 -4 -22 -7 -48 -7 l-48 0 -18 58 c-38
118 -34 116 -70 27 l-32 -80 -48 -3 c-56 -4 -58 -15 15 156 l48 113 -20 45
c-10 25 -19 50 -19 55 0 5 22 9 48 9 l49 0 71 -183z m403 38 c13 -19 27 -35
31 -35 3 0 16 16 28 35 20 33 25 35 77 35 l55 0 -52 -65 -52 -66 26 -37 c15
-20 38 -52 53 -69 l26 -33 -56 0 c-53 0 -56 2 -77 35 -12 19 -25 35 -30 35 -4
0 -18 -16 -31 -35 -22 -33 -28 -35 -78 -35 -60 0 -61 -8 11 81 21 26 38 50 38
53 0 4 -23 36 -51 71 l-51 65 55 0 c51 0 56 -2 78 -35z m-181 -185 l0 -50 -50
0 -50 0 0 50 0 50 50 0 50 0 0 -50z"/>
</g>
</svg>
